<?xml version="1.0" encoding="UTF-8" standalone="no"?>
<!DOCTYPE svg PUBLIC "-//W3C//DTD SVG 1.1//EN" "http://www.w3.org/Graphics/SVG/1.1/DTD/svg11.dtd">
<svg width="100%" height="100%" viewBox="0 0 470 448" version="1.1" xmlns="http://www.w3.org/2000/svg" xmlns:xlink="http://www.w3.org/1999/xlink" xml:space="preserve" xmlns:serif="http://www.serif.com/" style="fill-rule:evenodd;clip-rule:evenodd;stroke-linejoin:round;stroke-miterlimit:2;">
    <g transform="matrix(1.91706,0,0,1.91706,-211.523,-180.162)">
        <path d="M249.67,127.71C249.29,128.177 248.98,128.42 248.74,128.44C246.813,128.573 244.983,128.453 243.25,128.08C241.417,127.68 239.687,127.573 238.06,127.76C232.373,128.4 227.143,129.543 222.37,131.19C222.137,131.263 221.933,131.383 221.76,131.55C221.547,131.743 221.297,131.843 221.01,131.85C219.417,131.87 218.01,132.303 216.79,133.15C216.017,133.51 215.3,133.673 214.64,133.64C214.41,133.632 214.224,133.441 214.224,133.21C214.224,133.187 214.226,133.163 214.23,133.14C216.283,120.14 222.437,109.953 232.69,102.58C232.968,102.382 233.351,102.407 233.6,102.64C236.04,104.887 238.493,107.13 240.96,109.37C241.947,110.257 242.77,111.507 243.43,113.12C244.85,116.56 246.26,119.857 247.66,123.01C248.36,124.597 249.03,126.163 249.67,127.71Z" style="fill:rgb(254,254,240);fill-rule:nonzero;"/>
        <path d="M205.9,129.52C198.573,129.9 191.517,131.52 184.73,134.38C182.643,135.26 180.82,136.33 179.26,137.59C177.393,139.103 175.607,140.59 173.9,142.05C173.833,142.103 173.76,142.13 173.68,142.13L173.23,142.13C173.01,142.13 172.897,142.02 172.89,141.8C172.883,141.607 172.84,141.413 172.76,141.22C176.18,131.36 185.27,125.24 193.21,119.77C195.663,118.077 197.92,116.827 199.98,116.02C203.747,114.547 208.243,113.167 213.47,111.88C213.89,111.773 213.967,111.89 213.7,112.23C209.74,117.2 208.08,123.46 205.9,129.52Z" style="fill:rgb(254,255,231);fill-rule:nonzero;"/>
        <path d="M272.53,120.23C269.223,123.943 267.06,126.867 266.04,129C265.247,130.68 263.763,131.473 261.59,131.38C260.703,128.847 259.827,126.353 258.96,123.9C257.713,120.36 256.08,116.883 254.06,113.47C254.017,113.399 253.994,113.318 253.994,113.235C253.994,112.988 254.197,112.785 254.444,112.785C254.483,112.785 254.522,112.79 254.56,112.8C260.393,114.273 266.383,116.75 272.53,120.23Z" style="fill:rgb(92,111,183);fill-rule:nonzero;"/>
        <path d="M272.53,120.23C277.277,123.55 280.633,126.107 282.6,127.9C285.987,130.98 288.98,134.467 291.58,138.36C291.654,138.469 291.694,138.598 291.694,138.73C291.694,139.092 291.396,139.39 291.034,139.39C291.026,139.39 291.018,139.39 291.01,139.39C289.797,139.363 288.53,139.153 287.21,138.76C281.943,137.207 276.683,135.633 271.43,134.04C270.63,133.8 268.983,133.42 266.49,132.9C264.803,132.547 263.17,132.04 261.59,131.38C263.763,131.473 265.247,130.68 266.04,129C267.06,126.867 269.223,123.943 272.53,120.23Z" style="fill:rgb(76,96,164);fill-rule:nonzero;"/>
        <path d="M249.67,127.71L251.16,133.7C251.273,134.153 251.1,134.34 250.64,134.26C249.3,134.04 247.77,133.77 246.42,133.76C240.32,133.707 234.203,133.667 228.07,133.64C224.79,133.63 220.63,132.85 216.79,133.15C218.01,132.303 219.417,131.87 221.01,131.85C221.297,131.843 221.547,131.743 221.76,131.55C221.933,131.383 222.137,131.263 222.37,131.19C227.143,129.543 232.373,128.4 238.06,127.76C239.687,127.573 241.417,127.68 243.25,128.08C244.983,128.453 246.813,128.573 248.74,128.44C248.98,128.42 249.29,128.177 249.67,127.71Z" style="fill:rgb(92,111,183);fill-rule:nonzero;"/>
        <path d="M205.9,129.52L204.5,134.17C204.407,134.49 204.197,134.687 203.87,134.76C193.577,137.053 183.287,139.857 173,143.17C172.68,143.277 172.477,143.17 172.39,142.85C172.223,142.263 172.347,141.72 172.76,141.22C172.84,141.413 172.883,141.607 172.89,141.8C172.897,142.02 173.01,142.13 173.23,142.13L173.68,142.13C173.76,142.13 173.833,142.103 173.9,142.05C175.607,140.59 177.393,139.103 179.26,137.59C180.82,136.33 182.643,135.26 184.73,134.38C191.517,131.52 198.573,129.9 205.9,129.52Z" style="fill:rgb(144,146,140);fill-rule:nonzero;"/>
        <path d="M243.49,142.38C240.35,145.493 237.21,148.437 234.07,151.21C230.083,154.737 226.947,157.71 224.66,160.13C221.54,163.43 218.31,166.85 214.97,170.39C213.597,171.843 212.32,173.383 211.14,175.01C210.487,175.903 210.137,175.79 210.09,174.67C210.083,174.603 210.05,174.31 209.99,173.79C210.883,166.643 211.373,159.457 211.46,152.23C211.48,150.803 211.7,149.403 212.12,148.03C212.427,147.03 212.547,146.027 212.48,145.02C212.453,144.62 212.627,144.35 213,144.21C215.467,143.277 217.63,142.75 219.49,142.63C227.63,142.09 234.95,141.21 243.49,142.38Z" style="fill:rgb(254,255,231);fill-rule:nonzero;"/>
        <path d="M209.99,173.79C210.05,174.31 210.083,174.603 210.09,174.67C210.137,175.79 210.487,175.903 211.14,175.01C212.32,173.383 213.597,171.843 214.97,170.39C218.31,166.85 221.54,163.43 224.66,160.13C226.947,157.71 230.083,154.737 234.07,151.21C237.21,148.437 240.35,145.493 243.49,142.38C244.563,142.033 246.997,142.14 250.79,142.7C252.457,142.94 253.37,143.79 253.53,145.25C254.98,158.13 254.76,170.73 254.96,183.55C254.96,183.557 254.96,183.564 254.96,183.57C254.96,183.982 254.622,184.32 254.21,184.32C254.204,184.32 254.197,184.32 254.19,184.32C239.47,183.98 224.807,184.113 210.2,184.72C210.19,184.721 210.18,184.721 210.17,184.721C209.895,184.721 209.67,184.495 209.67,184.221C209.67,184.214 209.67,184.207 209.67,184.2L209.99,173.79Z" style="fill:rgb(76,96,164);fill-rule:nonzero;"/>
        <path d="M263.88,151.69C263.42,149.483 263.057,147.01 262.79,144.27C262.757,143.937 262.91,143.787 263.25,143.82C270.197,144.5 276.107,145.397 280.98,146.51C285.64,147.57 292.71,151.05 295.05,155.96C299.943,166.207 302.33,176.297 302.21,186.23C302.19,187.54 302.77,188.6 302.91,189.89C302.913,189.921 302.915,189.953 302.914,189.984C302.905,190.373 302.573,190.686 302.178,190.677C302.149,190.677 302.119,190.674 302.09,190.67L268.88,185.79C267.842,185.641 267.053,184.759 267.02,183.71C266.73,175.43 265.26,167.42 264.84,159.25C264.713,156.677 264.393,154.157 263.88,151.69Z" style="fill:rgb(76,90,137);fill-rule:nonzero;"/>
        <path d="M202.48,148.29C201.953,149.143 201.427,149.99 200.9,150.83C200.367,151.69 199.74,152.46 199.02,153.14C197.14,154.9 196.16,157.17 194.11,158.82C190.923,161.38 187.743,163.863 184.57,166.27C182.17,168.09 179.43,168.95 177.49,171.5C175.46,174.16 173.8,176.85 171.31,179C168.037,181.827 164.48,184.587 160.64,187.28C161.22,181.313 162.323,174.47 163.95,166.75C165.09,161.357 166.307,156.707 167.6,152.8C167.713,152.453 167.933,152.2 168.26,152.04C173.033,149.567 177.373,148.013 181.28,147.38C186.787,146.487 192.557,145.85 198.59,145.47C199.877,145.383 201.147,145.19 202.4,144.89C202.76,144.803 202.993,144.94 203.1,145.3C203.387,146.293 203.18,147.29 202.48,148.29Z" style="fill:rgb(254,255,231);fill-rule:nonzero;"/>
        <path d="M202.48,148.29L199.73,185.26C199.703,185.547 199.553,185.733 199.28,185.82C198.46,186.08 197.633,186.28 196.8,186.42C193.16,187.02 189.333,187.477 185.32,187.79C178.21,188.34 171.3,190.66 164.33,192.22C163.43,192.42 162.517,192.737 161.59,193.17C161.493,193.216 161.387,193.239 161.28,193.239C160.879,193.239 160.55,192.91 160.55,192.509C160.55,192.503 160.55,192.496 160.55,192.49L160.64,187.28C164.48,184.587 168.037,181.827 171.31,179C173.8,176.85 175.46,174.16 177.49,171.5C179.43,168.95 182.17,168.09 184.57,166.27C187.743,163.863 190.923,161.38 194.11,158.82C196.16,157.17 197.14,154.9 199.02,153.14C199.74,152.46 200.367,151.69 200.9,150.83C201.427,149.99 201.953,149.143 202.48,148.29ZM196.219,160.807C196.219,160.807 196.219,160.807 196.219,160.807C195.545,160.101 192.385,162.009 189.22,165.033C186.055,168.058 184.006,171.127 184.681,171.833C184.681,171.833 184.681,171.833 184.681,171.833C185.355,172.539 188.515,170.631 191.68,167.607C194.845,164.582 196.894,161.513 196.219,160.807Z" style="fill:rgb(149,171,198);fill-rule:nonzero;"/>
        <path d="M313.52,185.91C312.593,178.15 311.41,171.867 309.97,167.06C308.73,162.933 307.027,159.127 304.86,155.64C303.607,153.62 304.02,153.187 306.1,154.34C310.25,156.65 314.27,159.2 317.44,162.81C326.38,172.957 331.517,184.917 332.85,198.69C332.99,200.13 333.49,201.88 333.09,203.73C333.036,203.994 332.801,204.186 332.532,204.186C332.386,204.186 332.246,204.13 332.14,204.03C331.307,203.23 330.433,202.563 329.52,202.03C325.08,199.397 320.253,196.73 315.04,194.03C314.513,193.758 314.167,193.229 314.13,192.64C313.99,190.38 313.787,188.137 313.52,185.91Z" style="fill:rgb(65,78,129);fill-rule:nonzero;"/>
        <path d="M152.17,185.99C151.623,186.583 150.947,187.07 150.14,187.45C149.853,187.583 149.563,187.587 149.27,187.46C148.743,187.227 148.393,186.863 148.22,186.37C148.1,186.032 148.153,185.652 148.36,185.35L150.84,181.73C151.12,181.318 151.056,180.755 150.69,180.41C150.497,180.23 150.277,180.123 150.03,180.09C149.31,179.99 148.733,180.233 148.3,180.82C147.333,182.16 146.29,183.567 145.17,185.04C142.17,189 139.597,193.317 137.45,197.99C137.077,198.81 136.913,200.407 136.96,202.78C135.747,203.847 134.73,205.087 133.91,206.5C133.197,207.727 132.807,207.633 132.74,206.22C132.55,202.15 132.41,198.63 133.31,194.29C135.437,184.03 139.79,174.777 146.37,166.53C150.35,161.54 154.01,157.63 159.52,154.6C160.12,154.273 160.46,154.447 160.54,155.12C160.7,156.44 160.49,157.713 159.91,158.94C157.45,164.16 155.213,169.48 153.2,174.9C152.57,176.6 153.93,178 153.54,179.8C153.1,181.86 152.643,183.923 152.17,185.99Z" style="fill:rgb(254,255,231);fill-rule:nonzero;"/>
        <g transform="matrix(0.722967,-0.690882,0.690882,0.722967,190.45,166.32)">
            <ellipse cx="0" cy="0" rx="7.98" ry="1.78" style="fill:rgb(205,215,220);"/>
        </g>
        <path d="M152.17,185.99C152.24,190.09 153.32,195.22 148.33,197.12C144.01,198.767 140.22,200.653 136.96,202.78C136.913,200.407 137.077,198.81 137.45,197.99C139.597,193.317 142.17,189 145.17,185.04C146.29,183.567 147.333,182.16 148.3,180.82C148.733,180.233 149.31,179.99 150.03,180.09C150.277,180.123 150.497,180.23 150.69,180.41C151.056,180.755 151.12,181.318 150.84,181.73L148.36,185.35C148.153,185.652 148.1,186.032 148.22,186.37C148.393,186.863 148.743,187.227 149.27,187.46C149.563,187.587 149.853,187.583 150.14,187.45C150.947,187.07 151.623,186.583 152.17,185.99Z" style="fill:rgb(149,171,198);fill-rule:nonzero;"/>
        <path d="M243.96,195.07L244.6,195.23C244.92,195.31 245.057,195.513 245.01,195.84C244.963,196.18 244.787,196.48 244.48,196.74C239.78,200.653 235.337,204.827 231.15,209.26C229.703,210.793 226.917,214.233 222.79,219.58C218.963,224.527 214.65,229.227 209.85,233.68C209.137,220.9 208.95,208.617 209.29,196.83C209.297,196.497 209.467,196.323 209.8,196.31C220.68,195.91 232.08,194.72 243.96,195.07Z" style="fill:rgb(76,96,164);fill-rule:nonzero;"/>
        <path d="M243.96,195.07L254.33,195.43C254.944,195.451 255.44,195.956 255.45,196.57C255.717,209.863 255.453,223.153 254.66,236.44C254.628,237.015 254.141,237.471 253.56,237.47C241.367,237.47 229.493,237.477 217.94,237.49C215.62,237.49 213.34,237.16 211.02,236.98C210.701,236.954 210.405,236.799 210.2,236.55C209.42,235.61 209.303,234.653 209.85,233.68C214.65,229.227 218.963,224.527 222.79,219.58C226.917,214.233 229.703,210.793 231.15,209.26C235.337,204.827 239.78,200.653 244.48,196.74C244.787,196.48 244.963,196.18 245.01,195.84C245.057,195.513 244.92,195.31 244.6,195.23L243.96,195.07Z" style="fill:rgb(65,78,129);fill-rule:nonzero;"/>
        <path d="M159.79,222.51C160.77,222.79 161.44,223.12 162.43,223.12C165.13,223.1 167.92,223.11 170.8,223.15C171.587,223.162 172.322,222.739 172.71,222.05C176.043,216.177 180.263,210.813 185.37,205.96C187.283,204.14 188.91,202.01 190.25,199.57C190.39,199.317 190.35,199.093 190.13,198.9C189.81,198.613 189.353,198.537 188.76,198.67L199,196.86C199.033,196.854 199.067,196.851 199.1,196.851C199.403,196.851 199.654,197.097 199.66,197.4C200,210.273 199.817,222.84 199.11,235.1C199.077,235.68 198.773,235.937 198.2,235.87C184.873,234.357 172.367,232.33 160.68,229.79C160.191,229.681 159.865,229.206 159.94,228.71C160.24,226.73 160.19,224.663 159.79,222.51Z" style="fill:rgb(92,111,183);fill-rule:nonzero;"/>
        <path d="M289.76,199.65L290.03,200.43C290.143,200.757 290.097,201.06 289.89,201.34C285.95,206.607 281.81,211.87 277.47,217.13C276.223,218.65 274.81,220.163 273.23,221.67C271.817,223.03 270.42,224.61 269.04,226.41C268.607,226.963 268.11,227.097 267.55,226.81C267.27,226.67 267.097,226.447 267.03,226.14L266.72,224.76L267.28,198.13C267.285,197.849 267.518,197.62 267.8,197.62C273.22,197.64 278.62,197.933 284,198.5C285.987,198.707 287.907,199.09 289.76,199.65Z" style="fill:rgb(65,78,129);fill-rule:nonzero;"/>
        <path d="M188.76,198.67C189.353,198.537 189.81,198.613 190.13,198.9C190.35,199.093 190.39,199.317 190.25,199.57C188.91,202.01 187.283,204.14 185.37,205.96C180.263,210.813 176.043,216.177 172.71,222.05C172.322,222.739 171.587,223.162 170.8,223.15C167.92,223.11 165.13,223.1 162.43,223.12C161.44,223.12 160.77,222.79 159.79,222.51C159.203,217.723 159.253,212.887 159.94,208C160.167,206.353 160.627,204.787 161.32,203.3C161.46,202.993 161.697,202.807 162.03,202.74C171.05,200.88 179.01,198.95 188.76,198.67Z" style="fill:rgb(254,254,240);fill-rule:nonzero;"/>
        <path d="M289.76,199.65L300.92,202.99C302.393,203.428 303.484,204.687 303.71,206.21C304.63,212.52 303.76,219.8 303.38,226.05C303.336,226.764 302.944,227.418 302.33,227.8C300.543,228.9 298.547,229.66 296.34,230.08C287.873,231.7 279.17,233.107 270.23,234.3C269.22,234.44 268.36,234.84 267.38,235.07C267.318,235.085 267.254,235.092 267.189,235.092C266.734,235.092 266.359,234.718 266.359,234.262C266.359,234.251 266.36,234.241 266.36,234.23L266.72,224.76L267.03,226.14C267.097,226.447 267.27,226.67 267.55,226.81C268.11,227.097 268.607,226.963 269.04,226.41C270.42,224.61 271.817,223.03 273.23,221.67C274.81,220.163 276.223,218.65 277.47,217.13C281.81,211.87 285.95,206.607 289.89,201.34C290.097,201.06 290.143,200.757 290.03,200.43L289.76,199.65Z" style="fill:rgb(29,41,78);fill-rule:nonzero;"/>
        <path d="M137.39,214.45C140.85,210.71 145.29,208.31 150.44,206.71C150.47,206.701 150.5,206.693 150.531,206.689C150.872,206.635 151.198,206.877 151.252,207.223C151.257,207.252 151.259,207.281 151.26,207.31L151.36,225.76C151.36,225.77 151.359,225.78 151.358,225.79C151.341,225.91 151.225,225.994 151.1,225.976C151.09,225.975 151.08,225.973 151.07,225.97C145.463,224.37 140.88,221.45 137.32,217.21C136.649,216.407 136.679,215.218 137.39,214.45Z" style="fill:rgb(205,215,220);fill-rule:nonzero;"/>
        <path d="M321.58,210.85C323.88,211.57 326.063,212.64 328.13,214.06C329.457,214.973 329.48,215.923 328.2,216.91C324.793,219.543 320.633,221.863 315.72,223.87C315.598,223.919 315.468,223.945 315.337,223.945C314.778,223.945 314.317,223.484 314.317,222.925C314.317,222.9 314.318,222.875 314.32,222.85C314.667,218.197 314.65,213.76 314.27,209.54C314.268,209.52 314.267,209.5 314.267,209.48C314.267,209.112 314.57,208.81 314.937,208.81C315.062,208.81 315.184,208.844 315.29,208.91C316.177,209.457 317.163,209.77 318.25,209.85C319.35,209.94 320.56,210.53 321.58,210.85Z" style="fill:rgb(43,54,97);fill-rule:nonzero;"/>
        <path d="M314.14,237.19C314.411,236.939 314.723,236.739 315.06,236.6C320.853,234.147 326.443,230.997 331.83,227.15C331.947,227.065 332.087,227.018 332.232,227.018C332.605,227.018 332.912,227.325 332.912,227.698C332.912,227.716 332.911,227.733 332.91,227.75C332.743,229.743 332.41,231.733 331.91,233.72C328.91,245.567 323.53,256.283 315.77,265.87C313.07,269.21 309.87,272.29 306.17,275.11C304.357,276.49 303.91,276.14 304.83,274.06C309.8,262.82 312.93,251.02 313.53,238.47C313.557,237.97 313.76,237.543 314.14,237.19Z" style="fill:rgb(43,54,97);fill-rule:nonzero;"/>
        <path d="M146.38,236.42C146.907,236.713 147.073,237.133 146.88,237.68C146.692,238.212 146.139,238.53 145.59,238.42C143.137,237.96 140.84,237.277 138.7,236.37C138.4,236.243 138.083,236.19 137.75,236.21C135.85,236.297 134.603,235.22 134.01,232.98L133.36,228.09C133.357,228.068 133.355,228.046 133.355,228.024C133.355,227.777 133.558,227.574 133.805,227.574C133.9,227.574 133.993,227.604 134.07,227.66L146.38,236.42Z" style="fill:rgb(249,255,255);fill-rule:nonzero;"/>
        <path d="M134.01,232.98C134.603,235.22 135.85,236.297 137.75,236.21C138.083,236.19 138.4,236.243 138.7,236.37C140.84,237.277 143.137,237.96 145.59,238.42C146.139,238.53 146.692,238.212 146.88,237.68C147.073,237.133 146.907,236.713 146.38,236.42L151.98,238.35C152.32,238.463 152.51,238.697 152.55,239.05C152.76,240.76 152.73,242.48 153.1,244.18C154.673,251.4 156.713,258.6 159.22,265.78C160.167,268.5 161.09,271.353 161.99,274.34C162.013,274.415 162.024,274.494 162.024,274.573C162.024,275.017 161.658,275.383 161.214,275.383C161.193,275.383 161.171,275.382 161.15,275.38C160.303,275.313 159.563,275.013 158.93,274.48C152.41,268.95 146.65,264.04 142.75,256.16C139.957,250.527 137.597,245.327 135.67,240.56C134.763,238.313 134.21,235.787 134.01,232.98Z" style="fill:rgb(92,111,183);fill-rule:nonzero;"/>
        <path d="M172.73,241.79C173.71,242.83 173.997,243.75 173.59,244.55C173.443,244.843 173.363,245.153 173.35,245.48C173.303,246.24 173.363,246.95 173.53,247.61C174.117,249.997 174.773,252.567 175.5,255.32C176.38,258.64 178.01,261.29 179.81,264.12C180.05,264.493 179.95,264.677 179.51,264.67C179.157,264.663 178.683,264.42 178.09,263.94C172.823,260.947 167.977,257.47 163.55,253.51C162.27,249.097 161.523,244.83 161.31,240.71C161.31,240.7 161.309,240.69 161.309,240.679C161.309,240.301 161.621,239.989 161.999,239.989C162.04,239.989 162.08,239.993 162.12,240L172.73,241.79Z" style="fill:rgb(149,171,198);fill-rule:nonzero;"/>
        <path d="M263.72,276.43C263.827,276.943 263.883,277.24 263.89,277.32C263.903,277.429 263.934,277.536 263.982,277.635C264.218,278.118 264.813,278.32 265.301,278.082C265.401,278.033 265.492,277.968 265.57,277.89C272.857,270.577 279.637,264.047 285.91,258.3C289.19,255.287 292.117,251.057 294.69,245.61C295.09,244.77 295.1,244.1 294.95,243.19C294.849,242.619 294.348,242.198 293.768,242.198C293.65,242.198 293.533,242.216 293.42,242.25C290.3,243.217 287.213,243.683 284.16,243.65L301.1,240.04C301.129,240.034 301.158,240.029 301.188,240.025C301.942,239.916 302.652,240.443 302.76,241.192C302.764,241.221 302.768,241.251 302.77,241.28C303.177,246.773 302.33,252.21 300.23,257.59C297.943,263.423 295.683,268.86 293.45,273.9C292.563,275.9 290.87,277.22 288.37,277.86C284.31,278.9 280.463,279.92 276.83,280.92C275.543,281.273 274.157,281.437 272.67,281.41C269.87,281.357 266.987,281.577 264.02,282.07C263.96,282.08 263.9,282.085 263.84,282.085C263.246,282.085 262.754,281.604 262.74,281.01C262.7,279.65 263.027,278.123 263.72,276.43Z" style="fill:rgb(29,41,78);fill-rule:nonzero;"/>
        <path d="M172.73,241.79L199.17,245.88C199.432,245.919 199.628,246.145 199.63,246.41C199.81,256.21 200.6,266.14 202,276.2C200.54,275.6 199.127,275.02 197.76,274.46C196.573,273.98 195.11,273.577 193.37,273.25C189.21,272.463 185.83,271.057 183.23,269.03C182.41,268.383 180.697,266.687 178.09,263.94C178.683,264.42 179.157,264.663 179.51,264.67C179.95,264.677 180.05,264.493 179.81,264.12C178.01,261.29 176.38,258.64 175.5,255.32C174.773,252.567 174.117,249.997 173.53,247.61C173.363,246.95 173.303,246.24 173.35,245.48C173.363,245.153 173.443,244.843 173.59,244.55C173.997,243.75 173.71,242.83 172.73,241.79Z" style="fill:rgb(92,111,183);fill-rule:nonzero;"/>
        <path d="M263.72,276.43L265.66,247.82C265.72,246.947 266.183,246.443 267.05,246.31L284.16,243.65C287.213,243.683 290.3,243.217 293.42,242.25C293.533,242.216 293.65,242.198 293.768,242.198C294.348,242.198 294.849,242.619 294.95,243.19C295.1,244.1 295.09,244.77 294.69,245.61C292.117,251.057 289.19,255.287 285.91,258.3C279.637,264.047 272.857,270.577 265.57,277.89C265.492,277.968 265.401,278.033 265.301,278.082C264.813,278.32 264.218,278.118 263.982,277.635C263.934,277.536 263.903,277.429 263.89,277.32C263.883,277.24 263.827,276.943 263.72,276.43Z" style="fill:rgb(65,78,129);fill-rule:nonzero;"/>
        <path d="M253.49,256.18C251.097,261.073 247.76,266.337 243.48,271.97C239.913,276.67 235.53,279.827 230.33,281.44C230.023,281.533 229.777,281.717 229.59,281.99C228.657,283.37 227.007,284.06 224.64,284.06L214.77,283.55C214.328,283.533 213.955,283.206 213.88,282.77C213.25,279.35 212.16,276.09 211.78,272.65C210.85,264.19 210.01,255.73 210.19,247.68C210.197,247.293 210.39,247.12 210.77,247.16C224.377,248.373 238.533,248.55 253.24,247.69C253.267,247.688 253.295,247.688 253.322,247.689C253.865,247.703 254.3,248.157 254.286,248.694C254.285,248.723 254.283,248.752 254.28,248.78L253.49,256.18Z" style="fill:rgb(76,96,164);fill-rule:nonzero;"/>
        <path d="M163.55,253.51C167.977,257.47 172.823,260.947 178.09,263.94C180.697,266.687 182.41,268.383 183.23,269.03C185.83,271.057 189.21,272.463 193.37,273.25C195.11,273.577 196.573,273.98 197.76,274.46C199.127,275.02 200.54,275.6 202,276.2L203.35,281.44C203.45,281.84 203.293,282.037 202.88,282.03C199.52,282 196.09,281.3 192.69,281.16C188.817,280.993 184.697,280.653 180.33,280.14C174.41,279.44 170.31,275.07 168.31,269.72C166.29,264.3 164.703,258.897 163.55,253.51Z" style="fill:rgb(65,78,129);fill-rule:nonzero;"/>
        <path d="M253.49,256.18C253.423,257.673 253.423,259.247 253.49,260.9C253.76,267.65 252.28,274.31 251.76,280.97C251.43,285.12 248.16,284.35 245.37,284.43C238.497,284.617 231.587,284.493 224.64,284.06C227.007,284.06 228.657,283.37 229.59,281.99C229.777,281.717 230.023,281.533 230.33,281.44C235.53,279.827 239.913,276.67 243.48,271.97C247.76,266.337 251.097,261.073 253.49,256.18Z" style="fill:rgb(43,54,97);fill-rule:nonzero;"/>
        <path d="M204.97,305C204.45,304.873 203.943,304.723 203.45,304.55C196.897,302.177 192.91,300.4 191.49,299.22C188.997,297.14 186.513,295.053 184.04,292.96C182.92,292.013 182.08,290.99 181.52,289.89C181.463,289.776 181.433,289.65 181.433,289.523C181.433,289.073 181.803,288.703 182.253,288.703C182.309,288.703 182.365,288.709 182.42,288.72C188.927,290.1 195.563,291.25 202.33,292.17C203.783,292.363 204.87,293.06 205.59,294.26C207.623,297.667 209.107,301.643 210.04,306.19C210.05,306.236 210.055,306.282 210.055,306.329C210.055,306.686 209.762,306.979 209.405,306.979C209.271,306.979 209.14,306.937 209.03,306.86C207.697,305.947 206.343,305.327 204.97,305Z" style="fill:rgb(65,78,129);fill-rule:nonzero;"/>
        <path d="M256.17,306.73C255.87,306.777 255.573,306.612 255.45,306.33C255.317,306.023 255.35,305.737 255.55,305.47C258.41,301.67 260.627,297.697 262.2,293.55C262.483,292.803 263.163,292.273 263.96,292.18C271.74,291.327 279.373,290.21 286.86,288.83C286.904,288.823 286.949,288.823 286.993,288.83C287.216,288.865 287.37,289.072 287.336,289.289C287.328,289.335 287.313,289.379 287.29,289.42C286.877,290.2 286.303,290.85 285.57,291.37C281.97,293.95 278.04,296.75 273.78,299.77C268.28,303.67 262.48,305.75 256.17,306.73Z" style="fill:rgb(43,54,97);fill-rule:nonzero;"/>
        <path d="M231.05,293.7C236.957,294.187 242.97,293.927 249.09,292.92C249.134,292.912 249.178,292.909 249.223,292.909C249.65,292.909 250.003,293.261 250.003,293.689C250.003,293.785 249.985,293.88 249.95,293.97C247.06,301.61 242.82,309.67 236.91,315.14C235.73,316.233 234.687,317.47 233.78,318.85C233.64,319.068 233.399,319.201 233.14,319.201C232.965,319.201 232.796,319.14 232.66,319.03C228.507,315.677 225.307,312.473 223.06,309.42C219.62,304.74 217.21,298.86 214.82,293.41C214.788,293.34 214.772,293.264 214.772,293.188C214.772,292.892 215.016,292.648 215.312,292.648C215.328,292.648 215.344,292.649 215.36,292.65C218.52,292.923 221.913,293.063 225.54,293.07C227.38,293.08 229.21,293.55 231.05,293.7Z" style="fill:rgb(65,78,129);fill-rule:nonzero;"/>
    </g>
</svg>
