<?xml version="1.0" encoding="UTF-8" standalone="no"?>
<!DOCTYPE svg PUBLIC "-//W3C//DTD SVG 1.1//EN" "http://www.w3.org/Graphics/SVG/1.1/DTD/svg11.dtd">
<svg width="100%" height="100%" viewBox="0 0 720 720" version="1.1" xmlns="http://www.w3.org/2000/svg" xmlns:xlink="http://www.w3.org/1999/xlink" xml:space="preserve" xmlns:serif="http://www.serif.com/" style="fill-rule:evenodd;clip-rule:evenodd;stroke-linecap:round;stroke-linejoin:round;stroke-miterlimit:1.5;">
    <g transform="matrix(1,0,0,1,-165.184,-132.509)">
        <path d="M411.81,317.11C411.977,319.343 412.373,321.58 413,323.82C420,348.96 434.39,369.96 454.63,387.78C471.32,402.47 490.52,412.49 510.97,420.57C524.8,426.04 538.04,431.11 551.61,437.02C560.36,440.83 568.93,444.44 577.68,448.55C604.26,461.02 630.95,474.04 657.53,483.67C672.223,488.997 689.117,492.897 708.21,495.37C715.983,496.383 727.397,497.523 742.45,498.79C749.237,499.357 757.073,500.883 765.96,503.37C782.853,508.09 797.313,516.687 809.34,529.16C822.66,542.98 830.297,559.723 832.25,579.39C833.483,591.797 832.153,603.497 828.26,614.49C826.1,620.59 822.44,626.66 815.94,628.84C815.885,628.859 815.826,628.869 815.768,628.869C815.482,628.869 815.248,628.635 815.248,628.349C815.248,628.333 815.248,628.316 815.25,628.3C815.96,620.98 815.49,614.15 813.03,607.19C802.63,577.74 780.56,554.55 751.04,544.52C740.26,540.87 729.21,538.71 717.52,537.43C690.05,534.4 661.54,531.37 636.02,525.11C621.14,521.46 600.53,515.44 583.08,509.63C567.493,504.437 551.817,499.213 536.05,493.96C529.27,491.7 522.763,489.623 516.53,487.73C489.817,479.617 462.903,471.28 435.79,462.72C411.41,455.01 384.8,444.39 366.36,426.46C359.6,419.88 352.78,413.12 347.4,405.07C336.17,388.24 328.87,369.06 330.22,348.69C331.23,333.43 339.99,319.71 355.33,316.95C355.764,316.875 356.085,316.494 356.085,316.053C356.085,315.921 356.056,315.79 356,315.67C352.953,309.023 351.443,302.607 351.47,296.42C351.49,291.527 352.703,285.52 355.11,278.4C358.377,268.727 362.92,259.687 368.74,251.28C378.46,237.23 392.13,225.44 406.33,216.1C417.097,209.027 427.523,203.467 437.61,199.42C457.21,191.56 477.697,186.943 499.07,185.57C511.13,184.79 524.87,184.64 536.69,186.06C559.86,188.86 580.37,193.74 598.8,207.65C599.52,208.197 599.427,208.493 598.52,208.54C587.59,209.11 576.19,209.36 566.04,211.36C554.32,213.68 540.87,216.52 529.63,220.71C519.6,224.44 509.56,228.07 500.01,233.08C490.95,237.84 482.347,243.057 474.2,248.73C467.36,253.5 460.97,259.56 455.04,265.37C450.493,269.843 446.747,274.72 443.8,280C443.247,280.987 443.457,281.193 444.43,280.62C450.63,276.993 456.423,273.813 461.81,271.08C472.423,265.693 483.473,260.08 494.96,254.24C517.587,242.74 541.22,234.7 565.86,230.12C584.84,226.59 605.07,227.14 623.98,230.38C640.12,233.15 656.76,239.57 670.64,247.95C677.82,252.29 685.613,257.513 694.02,263.62C708.18,273.92 725.23,280.28 743.08,279.48C754.56,278.96 762.93,275.47 771.86,269.01C771.928,268.963 772.009,268.938 772.092,268.938C772.317,268.938 772.502,269.123 772.502,269.348C772.502,269.362 772.501,269.376 772.5,269.39C771.1,282.94 763.97,295.39 752.52,302.84C734.2,314.76 709.77,312.85 689.68,305.71C681.09,302.66 672.71,298.53 663.96,295.7C659.05,294.1 654.21,292.24 649.26,290.91C615.807,281.87 582.163,282.633 548.33,293.2C541.203,295.427 534.23,297.88 527.41,300.56C524.65,301.647 524.753,302.157 527.72,302.09C551.21,301.6 577.06,301.28 599.6,304.71C620.967,307.963 640.913,314.463 659.44,324.21C675.62,332.71 690.38,343.27 705.29,353.56C711.39,357.76 718.47,361.73 725.29,364.38C734.737,368.06 745.527,369.763 757.66,369.49C782.93,368.91 803.79,353.81 810.14,329.19C812.467,320.143 812.083,311.59 808.99,303.53C808.982,303.506 808.978,303.481 808.978,303.456C808.978,303.324 809.087,303.216 809.218,303.216C809.274,303.216 809.327,303.235 809.37,303.27C822.22,314.61 827.53,328.06 825.73,345.05C822.16,378.95 791.39,399.14 760.2,404.44C736.06,408.55 710.77,404.29 688.31,393.86C680.34,390.16 672.68,386.15 665.12,381.8C652.373,374.46 638.677,367.957 624.03,362.29C603.76,354.44 581.2,351.36 559.09,350.9C558.987,350.898 558.884,350.917 558.789,350.957C558.408,351.113 558.222,351.55 558.376,351.926C558.415,352.022 558.474,352.109 558.55,352.18C558.737,352.36 559.037,352.543 559.45,352.73C587.577,365.55 606.66,374.747 616.7,380.32C630.62,388.04 644.037,395.527 656.95,402.78C692.04,422.49 733.34,434.54 773.84,433.43C799.83,432.72 826.51,423.16 839.77,399.63C840.643,398.083 840.97,398.19 840.75,399.95C840.417,402.663 840.023,405.297 839.57,407.85C836.843,423.243 829.567,436.083 817.74,446.37C808.84,454.11 798.99,459.907 788.19,463.76C774.317,468.713 760.03,471.5 745.33,472.12C725.117,472.973 705.227,471.39 685.66,467.37C677.673,465.737 670.267,463.737 663.44,461.37C644.307,454.743 624.943,446.79 605.35,437.51C593.01,431.66 579.41,425.33 566.37,419.66C541.977,409.06 521.367,399.943 504.54,392.31C500.473,390.463 496.06,388.353 491.3,385.98C474.48,377.59 457.83,366.47 444.81,355.42C431.797,344.373 420.913,331.57 412.16,317.01C412.142,316.978 412.115,316.951 412.081,316.933C411.99,316.883 411.876,316.914 411.829,317.001C411.811,317.034 411.804,317.072 411.81,317.11Z" style="fill:white;fill-rule:nonzero;"/>
        <path d="M329.999,304.569C329.632,301.79 329.459,299.042 329.47,296.328C329.498,289.56 330.939,281.205 334.268,271.357C338.194,259.731 343.654,248.866 350.649,238.762C361.953,222.423 377.727,208.581 394.24,197.72L394.25,197.713C406.349,189.764 418.084,183.549 429.418,179.002L429.421,179.001C451.182,170.274 473.926,165.141 497.655,163.616C511.011,162.752 526.225,162.645 539.314,164.217L539.329,164.219C566.528,167.506 590.419,173.762 612.053,190.09C612.07,190.103 612.087,190.115 612.104,190.128C619.763,195.943 621.58,202.49 621.492,207.727C623.572,208.021 625.64,208.344 627.695,208.696L627.701,208.697C646.484,211.921 665.858,219.364 682.011,229.116L682.021,229.122C689.675,233.749 697.988,239.31 706.95,245.82L706.961,245.829C717.128,253.224 729.275,258.075 742.091,257.502C748.844,257.195 753.711,254.986 758.965,251.185C759.11,251.081 759.256,250.978 759.402,250.877C763.136,248.312 767.562,246.938 772.092,246.938C784.386,246.938 794.502,257.054 794.502,269.348C794.502,270.116 794.463,270.883 794.384,271.647L794.384,271.651C792.302,291.795 781.54,310.205 764.518,321.28C749.749,330.89 731.976,334.166 714.357,333.083C715.495,333.871 716.634,334.658 717.774,335.445C722.504,338.701 727.97,341.819 733.258,343.874L733.276,343.881C740.239,346.593 748.216,347.697 757.16,347.496C772.288,347.147 785.03,338.441 788.835,323.704C789.948,319.373 789.932,315.272 788.451,311.413C788.312,311.051 788.182,310.685 788.063,310.316C787.344,308.1 786.978,305.785 786.978,303.456C786.978,291.255 797.018,281.216 809.218,281.216C814.34,281.216 819.307,282.985 823.276,286.222C823.497,286.402 823.714,286.586 823.927,286.775C842.557,303.215 850.216,322.73 847.608,347.361C846.481,358.055 843.358,367.792 838.693,376.505C842.756,376.259 846.089,377.176 847.499,377.637C850.904,378.748 864.873,384.334 862.586,402.633C862.204,405.744 861.752,408.763 861.232,411.691C857.602,432.181 847.921,449.276 832.178,462.97L832.177,462.971C821.159,472.552 808.955,479.709 795.585,484.48C792.654,485.526 789.707,486.489 786.745,487.367C801.249,493.511 814.057,502.356 825.177,513.89L825.18,513.893C841.98,531.323 851.678,552.41 854.142,577.215C855.71,592.989 853.948,607.856 848.998,621.834C844.647,634.121 836.074,645.267 822.995,649.678C820.668,650.467 818.226,650.869 815.768,650.869C803.414,650.869 793.248,640.703 793.248,628.349C793.248,627.635 793.282,626.921 793.349,626.21L793.353,626.176C793.744,622.14 793.644,618.359 792.288,614.521L792.286,614.516C784.154,591.488 767.054,573.2 743.974,565.354C734.699,562.215 725.183,560.401 715.125,559.299L715.108,559.297C686.681,556.162 657.188,552.955 630.779,546.477C615.419,542.709 594.143,536.501 576.13,530.503L576.126,530.502C560.539,525.309 544.862,520.085 529.096,514.832L529.093,514.831C522.509,512.636 516.19,510.619 510.137,508.781C483.347,500.644 456.357,492.284 429.167,483.699L429.156,483.696C401.625,474.989 371.847,462.481 351.023,442.233L351.015,442.225C343.166,434.585 335.355,426.641 329.109,417.294L329.1,417.281C315.176,396.414 306.595,372.492 308.268,347.236C309.415,329.917 317.128,314.261 329.999,304.569ZM411.81,317.11C411.804,317.072 411.811,317.034 411.829,317.001C411.876,316.914 411.99,316.883 412.081,316.933C412.115,316.951 412.142,316.978 412.16,317.01C420.913,331.57 431.797,344.373 444.81,355.42C457.83,366.47 474.48,377.59 491.3,385.98C496.06,388.353 500.473,390.463 504.54,392.31C521.367,399.943 541.977,409.06 566.37,419.66C579.41,425.33 593.01,431.66 605.35,437.51C624.943,446.79 644.307,454.743 663.44,461.37C670.267,463.737 677.673,465.737 685.66,467.37C705.227,471.39 725.117,472.973 745.33,472.12C760.03,471.5 774.317,468.713 788.19,463.76C798.99,459.907 808.84,454.11 817.74,446.37C829.567,436.083 836.843,423.243 839.57,407.85C840.023,405.297 840.417,402.663 840.75,399.95C840.97,398.19 840.643,398.083 839.77,399.63C826.51,423.16 799.83,432.72 773.84,433.43C733.34,434.54 692.04,422.49 656.95,402.78C644.037,395.527 630.62,388.04 616.7,380.32C606.66,374.747 587.577,365.55 559.45,352.73C559.037,352.543 558.737,352.36 558.55,352.18C558.474,352.109 558.415,352.022 558.376,351.926C558.222,351.55 558.408,351.113 558.789,350.957C558.884,350.917 558.987,350.898 559.09,350.9C581.2,351.36 603.76,354.44 624.03,362.29C638.677,367.957 652.373,374.46 665.12,381.8C672.68,386.15 680.34,390.16 688.31,393.86C710.77,404.29 736.06,408.55 760.2,404.44C791.39,399.14 822.16,378.95 825.73,345.05C827.53,328.06 822.22,314.61 809.37,303.27C809.327,303.235 809.274,303.216 809.218,303.216C809.087,303.216 808.978,303.324 808.978,303.456C808.978,303.481 808.982,303.506 808.99,303.53C812.083,311.59 812.467,320.143 810.14,329.19C803.79,353.81 782.93,368.91 757.66,369.49C745.527,369.763 734.737,368.06 725.29,364.38C718.47,361.73 711.39,357.76 705.29,353.56C690.38,343.27 675.62,332.71 659.44,324.21C640.913,314.463 620.967,307.963 599.6,304.71C577.06,301.28 551.21,301.6 527.72,302.09C524.753,302.157 524.65,301.647 527.41,300.56C534.23,297.88 541.203,295.427 548.33,293.2C582.163,282.633 615.807,281.87 649.26,290.91C654.21,292.24 659.05,294.1 663.96,295.7C672.71,298.53 681.09,302.66 689.68,305.71C709.77,312.85 734.2,314.76 752.52,302.84C763.97,295.39 771.1,282.94 772.5,269.39C772.501,269.376 772.502,269.362 772.502,269.348C772.502,269.123 772.317,268.938 772.092,268.938C772.009,268.938 771.928,268.963 771.86,269.01C762.93,275.47 754.56,278.96 743.08,279.48C725.23,280.28 708.18,273.92 694.02,263.62C685.613,257.513 677.82,252.29 670.64,247.95C656.76,239.57 640.12,233.15 623.98,230.38C605.07,227.14 584.84,226.59 565.86,230.12C541.22,234.7 517.587,242.74 494.96,254.24C483.473,260.08 472.423,265.693 461.81,271.08C456.423,273.813 450.63,276.993 444.43,280.62C443.457,281.193 443.247,280.987 443.8,280C446.747,274.72 450.493,269.843 455.04,265.37C460.97,259.56 467.36,253.5 474.2,248.73C482.347,243.057 490.95,237.84 500.01,233.08C509.56,228.07 519.6,224.44 529.63,220.71C540.87,216.52 554.32,213.68 566.04,211.36C576.19,209.36 587.59,209.11 598.52,208.54C599.427,208.493 599.52,208.197 598.8,207.65C580.37,193.74 559.86,188.86 536.69,186.06C524.87,184.64 511.13,184.79 499.07,185.57C477.697,186.943 457.21,191.56 437.61,199.42C427.523,203.467 417.097,209.027 406.33,216.1C392.13,225.44 378.46,237.23 368.74,251.28C362.92,259.687 358.377,268.727 355.11,278.4C352.703,285.52 351.49,291.527 351.47,296.42C351.443,302.607 352.953,309.023 356,315.67C356.056,315.79 356.085,315.921 356.085,316.053C356.085,316.494 355.764,316.875 355.33,316.95C339.99,319.71 331.23,333.43 330.22,348.69C328.87,369.06 336.17,388.24 347.4,405.07C352.78,413.12 359.6,419.88 366.36,426.46C384.8,444.39 411.41,455.01 435.79,462.72C462.903,471.28 489.817,479.617 516.53,487.73C522.763,489.623 529.27,491.7 536.05,493.96C551.817,499.213 567.493,504.437 583.08,509.63C600.53,515.44 621.14,521.46 636.02,525.11C661.54,531.37 690.05,534.4 717.52,537.43C729.21,538.71 740.26,540.87 751.04,544.52C780.56,554.55 802.63,577.74 813.03,607.19C815.49,614.15 815.96,620.98 815.25,628.3C815.248,628.316 815.248,628.333 815.248,628.349C815.248,628.635 815.482,628.869 815.768,628.869C815.826,628.869 815.885,628.859 815.94,628.84C822.44,626.66 826.1,620.59 828.26,614.49C832.153,603.497 833.483,591.797 832.25,579.39C830.297,559.723 822.66,542.98 809.34,529.16C797.313,516.687 782.853,508.09 765.96,503.37C757.073,500.883 749.237,499.357 742.45,498.79C727.397,497.523 715.983,496.383 708.21,495.37C689.117,492.897 672.223,488.997 657.53,483.67C630.95,474.04 604.26,461.02 577.68,448.55C568.93,444.44 560.36,440.83 551.61,437.02C538.04,431.11 524.8,426.04 510.97,420.57C490.52,412.49 471.32,402.47 454.63,387.78C434.39,369.96 420,348.96 413,323.82C412.373,321.58 411.977,319.343 411.81,317.11Z"/>
    </g>
    <g transform="matrix(1,0,0,1,-165.184,-132.509)">
        <path d="M321.84,311.58C301.06,330.98 301.32,365.99 310.83,390.55C310.997,390.983 310.857,391.133 310.41,391C297.6,387.19 285.13,379.96 278.05,368.53C259.18,338.05 274.6,302.62 303.01,285.39C310.53,280.83 318.68,278.057 327.46,277.07C327.478,277.068 327.496,277.067 327.514,277.067C327.755,277.067 327.954,277.265 327.954,277.507C327.954,277.555 327.946,277.604 327.93,277.65C326.903,280.697 325.9,283.89 324.92,287.23C322.687,294.77 321.8,302.537 322.26,310.53C322.287,310.943 322.147,311.293 321.84,311.58Z" style="fill:white;fill-rule:nonzero;"/>
        <path d="M338.218,329.123C324.406,342.018 326.89,365.559 333.211,381.884C333.217,381.901 333.224,381.918 333.23,381.935C338.155,394.74 332.532,402.93 328.395,407.363C324.306,411.744 316.599,417.889 303.556,414.001C285.205,408.54 267.79,397.543 257.647,381.168L257.644,381.163C231.37,338.724 251.008,288.859 290.565,264.869L290.566,264.868C301.088,258.488 312.491,254.602 324.776,253.221C325.685,253.118 326.599,253.067 327.514,253.067C340.921,253.067 351.954,264.099 351.954,277.507C351.954,280.18 351.515,282.835 350.644,285.401C349.725,288.133 348.827,290.995 347.949,293.987C347.943,294.007 347.938,294.026 347.932,294.046C346.487,298.925 345.924,303.951 346.219,309.123C346.69,316.977 344.067,323.656 338.229,329.113L338.218,329.123ZM321.84,311.58C322.147,311.293 322.287,310.943 322.26,310.53C321.8,302.537 322.687,294.77 324.92,287.23C325.9,283.89 326.903,280.697 327.93,277.65C327.946,277.604 327.954,277.555 327.954,277.507C327.954,277.265 327.755,277.067 327.514,277.067C327.496,277.067 327.478,277.068 327.46,277.07C318.68,278.057 310.53,280.83 303.01,285.39C274.6,302.62 259.18,338.05 278.05,368.53C285.13,379.96 297.6,387.19 310.41,391C310.857,391.133 310.997,390.983 310.83,390.55C301.32,365.99 301.06,330.98 321.84,311.58Z"/>
    </g>
    <g transform="matrix(1,0,0,1,-165.184,-132.509)">
        <path d="M265.65,394.25C254.863,398.863 245.42,404.317 237.32,410.61C237.316,410.613 237.312,410.616 237.308,410.62C237.163,410.728 236.951,410.694 236.84,410.544C236.837,410.54 236.833,410.535 236.83,410.53C228.04,397.25 225.87,381.06 227.46,365.04C228.273,356.853 230.807,349.23 235.06,342.17C236.63,339.59 240.15,341.72 242.24,342.46C242.62,342.6 242.817,342.87 242.83,343.27C243.37,362.74 252.98,378.89 265.77,393.7C265.826,393.764 265.857,393.846 265.857,393.931C265.857,394.068 265.776,394.194 265.65,394.25Z" style="fill:white;fill-rule:nonzero;"/>
        <path d="M275.088,416.317C266.339,420.058 258.652,424.434 252.144,429.485C251.981,429.613 251.817,429.738 251.651,429.862C241.108,437.72 225.694,435.749 217.597,424.887C217.357,424.565 217.125,424.236 216.9,423.902C216.872,423.86 216.845,423.819 216.817,423.777C204.984,405.899 201.437,384.236 203.577,362.67L203.578,362.667C204.747,350.897 208.387,339.936 214.502,329.785C214.521,329.755 214.539,329.724 214.558,329.694C219.476,321.611 226.315,318.088 233.946,317.139C239.032,316.506 245.886,318.291 250.25,319.836C250.346,319.87 250.442,319.905 250.537,319.94C261.078,323.823 266.447,331.375 266.817,342.47C266.818,342.515 266.82,342.56 266.821,342.605C267.203,356.388 274.814,367.441 283.92,377.997C287.747,382.42 289.857,388.079 289.857,393.931C289.857,403.506 284.209,412.229 275.473,416.148C275.345,416.205 275.216,416.261 275.088,416.317ZM265.65,394.25C265.776,394.194 265.857,394.068 265.857,393.931C265.857,393.846 265.826,393.764 265.77,393.7C252.98,378.89 243.37,362.74 242.83,343.27C242.817,342.87 242.62,342.6 242.24,342.46C240.15,341.72 236.63,339.59 235.06,342.17C230.807,349.23 228.273,356.853 227.46,365.04C225.87,381.06 228.04,397.25 236.83,410.53C236.833,410.535 236.837,410.54 236.84,410.544C236.951,410.694 237.163,410.728 237.308,410.62C237.312,410.616 237.316,410.613 237.32,410.61C245.42,404.317 254.863,398.863 265.65,394.25Z"/>
    </g>
    <g transform="matrix(1,0,0,1,-165.184,-132.509)">
        <path d="M258,602.85C258.119,602.794 258.196,602.674 258.196,602.542C258.196,602.435 258.146,602.334 258.06,602.27C248.847,595.717 239.977,587.327 231.45,577.1C216.72,559.44 209.27,537.41 209.56,514.66C210.06,475.287 227.037,445.23 260.49,424.49C263.703,422.497 268.8,420.193 275.78,417.58C288.907,412.667 302.42,411.153 316.32,413.04C317.027,413.134 317.641,413.568 317.96,414.2C321.193,420.567 324.97,426.933 329.29,433.3C329.477,433.58 329.423,433.803 329.13,433.97C314.963,442.057 302.853,451.897 292.8,463.49C281.693,476.303 274.37,491.427 270.83,508.86C267.903,523.287 269.073,537.603 274.34,551.81C274.549,552.379 274.601,552.995 274.49,553.59C272.223,565.87 270.937,578.443 270.63,591.31C270.377,602.05 270.433,616.137 270.8,633.57C271.2,652.763 274.047,671.64 279.34,690.2C279.347,690.227 279.35,690.255 279.35,690.282C279.35,690.464 279.202,690.612 279.02,690.612C279.007,690.612 278.993,690.612 278.98,690.61C254.12,687.65 235.41,666.61 234.75,641.86C234.3,624.61 242,610.25 258,602.85Z" style="fill:white;fill-rule:nonzero;"/>
        <path d="M221.869,602.392C218.882,599.271 215.931,595.965 213.018,592.471C194.585,570.371 185.199,542.825 185.562,514.355C186.173,466.209 206.935,429.456 247.841,404.094C251.958,401.54 258.424,398.451 267.365,395.104L267.367,395.103C284.263,388.779 301.656,386.83 319.469,389.247C328.064,390.385 335.515,395.711 339.359,403.333C342.151,408.831 345.419,414.326 349.15,419.824C349.186,419.879 349.223,419.933 349.259,419.987C353.938,427.005 354.07,433.655 352.734,439.252C351.404,444.821 348.3,450.681 341.028,454.813C329.303,461.506 319.254,469.617 310.934,479.211C302.516,488.924 297.034,500.42 294.35,513.634C292.318,523.656 293.185,533.598 296.843,543.468C296.85,543.486 296.857,543.505 296.864,543.524C298.568,548.155 298.987,553.157 298.091,557.946C296.052,568.993 294.899,580.304 294.623,591.879C294.376,602.346 294.437,616.075 294.795,633.065L294.795,633.07C295.152,650.202 297.695,667.051 302.42,683.618C302.475,683.811 302.528,684.006 302.578,684.201C303.091,686.187 303.35,688.231 303.35,690.282C303.35,703.63 292.368,714.612 279.02,714.612C278.053,714.612 277.085,714.555 276.124,714.44C239.418,710.06 211.733,679.047 210.759,642.5L210.758,642.486C210.361,627.28 214.099,613.573 221.869,602.392ZM258,602.85C242,610.25 234.3,624.61 234.75,641.86C235.41,666.61 254.12,687.65 278.98,690.61C278.993,690.612 279.007,690.612 279.02,690.612C279.202,690.612 279.35,690.464 279.35,690.282C279.35,690.255 279.347,690.227 279.34,690.2C274.047,671.64 271.2,652.763 270.8,633.57C270.433,616.137 270.377,602.05 270.63,591.31C270.937,578.443 272.223,565.87 274.49,553.59C274.601,552.995 274.549,552.379 274.34,551.81C269.073,537.603 267.903,523.287 270.83,508.86C274.37,491.427 281.693,476.303 292.8,463.49C302.853,451.897 314.963,442.057 329.13,433.97C329.423,433.803 329.477,433.58 329.29,433.3C324.97,426.933 321.193,420.567 317.96,414.2C317.641,413.568 317.027,413.134 316.32,413.04C302.42,411.153 288.907,412.667 275.78,417.58C268.8,420.193 263.703,422.497 260.49,424.49C227.037,445.23 210.06,475.287 209.56,514.66C209.27,537.41 216.72,559.44 231.45,577.1C239.977,587.327 248.847,595.717 258.06,602.27C258.146,602.334 258.196,602.435 258.196,602.542C258.196,602.674 258.119,602.794 258,602.85Z"/>
    </g>
    <path d="M454.096,646.781C440.263,652.388 426.556,656.844 412.976,660.151C398.656,663.641 382.206,666.471 367.106,667.201C328.933,669.068 292.166,662.848 256.806,648.541C236.616,640.371 217.266,629.711 199.576,616.861C180.316,602.874 165.019,585.941 153.686,566.061C145.856,552.331 141.306,532.941 139.776,516.241C139.236,510.301 138.953,503.521 138.926,495.901C138.853,474.854 138.933,460.518 139.166,452.891C140.316,414.331 151.656,377.361 177.496,348.501C181.069,344.514 185.979,340.144 192.226,335.391C192.519,335.164 192.813,335.168 193.106,335.401C205.059,344.928 217.199,352.214 229.526,357.261C242.526,362.588 255.949,367.088 269.796,370.761C287.683,375.514 304.776,380.114 321.076,384.561C329.423,386.834 337.606,389.194 345.626,391.641C366.293,397.941 387.573,404.448 409.466,411.161C439.266,420.301 470.003,427.401 501.676,432.461C507.923,433.454 514.443,434.324 521.236,435.071C533.703,436.431 546.363,437.641 559.216,438.701C559.576,438.728 559.793,438.918 559.866,439.271C562.033,449.298 563.206,459.538 563.386,469.991C563.593,482.264 563.626,493.348 563.486,503.241C563.366,511.388 562.339,520.918 560.406,531.831C557.086,550.544 550.553,566.911 540.806,580.931C536.779,586.724 531.536,593.091 525.076,600.031C505.656,620.921 480.366,636.131 454.096,646.781Z" style="fill:white;fill-rule:nonzero;"/>
    <path d="M466.491,677.364C451.117,683.596 435.88,688.538 420.787,692.213C404.53,696.175 385.848,699.333 368.706,700.162C325.695,702.264 284.27,695.252 244.429,679.132L244.427,679.131C221.762,669.96 200.043,657.987 180.184,643.562C157.013,626.735 138.653,606.323 125.018,582.406C115.074,564.967 108.857,540.463 106.914,519.252L106.911,519.229C106.295,512.45 105.957,504.712 105.926,496.016C105.851,474.427 105.942,459.718 106.181,451.89C107.568,405.487 121.814,361.219 152.91,326.488L152.922,326.475C157.616,321.238 163.988,315.415 172.186,309.172C179.043,303.924 186.188,302.148 193.041,302.226C199.804,302.302 206.886,304.195 213.649,309.575L213.673,309.594C222.996,317.024 232.416,322.785 242.029,326.721L242.038,326.725C253.73,331.516 265.804,335.56 278.258,338.864L278.271,338.868C296.231,343.641 313.394,348.259 329.748,352.721C338.42,355.083 346.922,357.535 355.248,360.075C375.932,366.38 397.229,372.892 419.14,379.611L419.142,379.612C447.493,388.307 476.736,395.058 506.869,399.872C512.605,400.784 518.592,401.581 524.829,402.267C536.987,403.593 549.332,404.773 561.866,405.807C570.104,406.464 576.429,409.687 581.406,414.052C586.4,418.431 590.43,424.304 592.14,432.387C594.746,444.476 596.164,456.821 596.381,469.423L596.381,469.435C596.594,482.086 596.627,493.51 596.483,503.708L596.482,503.727C596.34,513.373 595.189,524.665 592.9,537.587L592.898,537.596C588.69,561.314 580.256,581.997 567.902,599.767C563.115,606.654 556.919,614.255 549.24,622.505C526.555,646.906 497.18,664.923 466.494,677.363L466.491,677.364ZM454.096,646.781C480.366,636.131 505.656,620.921 525.076,600.031C531.536,593.091 536.779,586.724 540.806,580.931C550.553,566.911 557.086,550.544 560.406,531.831C562.339,520.918 563.366,511.388 563.486,503.241C563.626,493.348 563.593,482.264 563.386,469.991C563.206,459.538 562.033,449.298 559.866,439.271C559.793,438.918 559.576,438.728 559.216,438.701C546.363,437.641 533.703,436.431 521.236,435.071C514.443,434.324 507.923,433.454 501.676,432.461C470.003,427.401 439.266,420.301 409.466,411.161C387.573,404.448 366.293,397.941 345.626,391.641C337.606,389.194 329.423,386.834 321.076,384.561C304.776,380.114 287.683,375.514 269.796,370.761C255.949,367.088 242.526,362.588 229.526,357.261C217.199,352.214 205.059,344.928 193.106,335.401C192.813,335.168 192.519,335.164 192.226,335.391C185.979,340.144 181.069,344.514 177.496,348.501C151.656,377.361 140.316,414.331 139.166,452.891C138.933,460.518 138.853,474.854 138.926,495.901C138.953,503.521 139.236,510.301 139.776,516.241C141.306,532.941 145.856,552.331 153.686,566.061C165.019,585.941 180.316,602.874 199.576,616.861C217.266,629.711 236.616,640.371 256.806,648.541C292.166,662.848 328.933,669.068 367.106,667.201C382.206,666.471 398.656,663.641 412.976,660.151C426.556,656.844 440.263,652.388 454.096,646.781Z"/>
    <g transform="matrix(1,0,0,1,4.33019,11.551)">
        <path d="M233.966,439.643C264.555,439.643 289.389,464.477 289.389,495.066C289.389,525.655 264.555,550.489 233.966,550.489C203.377,550.489 178.543,525.655 178.543,495.066C178.543,464.477 203.377,439.643 233.966,439.643ZM233.966,495.143C234.008,495.143 234.043,495.109 234.043,495.066C234.043,495.024 234.008,494.989 233.966,494.989C233.923,494.989 233.889,495.024 233.889,495.066C233.889,495.109 233.923,495.143 233.966,495.143Z"/>
    </g>
    <g transform="matrix(1,0,0,1,230.702,11.551)">
        <path d="M233.966,439.643C264.555,439.643 289.389,464.477 289.389,495.066C289.389,525.655 264.555,550.489 233.966,550.489C203.377,550.489 178.543,525.655 178.543,495.066C178.543,464.477 203.377,439.643 233.966,439.643ZM233.966,495.143C234.008,495.143 234.043,495.109 234.043,495.066C234.043,495.024 234.008,494.989 233.966,494.989C233.923,494.989 233.889,495.024 233.889,495.066C233.889,495.109 233.923,495.143 233.966,495.143Z"/>
    </g>
    <g transform="matrix(1,0,0,1,-165.184,-132.509)">
        <path d="M772.01,606.19C788.063,614.677 795.517,628.117 794.37,646.51C793.07,667.34 774.84,688.13 753.55,690.29C753.13,690.33 752.987,690.15 753.12,689.75C757.887,674.83 760.4,659.177 760.66,642.79C760.873,628.983 760.9,615.713 760.74,602.98C760.743,602.752 760.932,602.566 761.16,602.566C761.18,602.566 761.2,602.567 761.22,602.57C764.947,603.15 768.543,604.357 772.01,606.19Z" style="fill:white;fill-rule:nonzero;"/>
        <path d="M786.033,579.669C813.418,594.147 826.268,616.999 824.312,648.377L824.312,648.379C822.169,682.717 791.675,716.576 756.578,720.137C756.517,720.143 756.456,720.149 756.394,720.155C742.397,721.488 734.436,714.872 729.659,708.873C724.899,702.895 720.257,693.708 724.586,680.485C728.445,668.358 730.452,655.633 730.664,642.318C730.872,628.806 730.899,615.819 730.742,603.357C730.739,603.096 730.739,602.835 730.743,602.574C730.967,586.043 744.628,572.566 761.16,572.566C762.615,572.566 764.068,572.67 765.508,572.878C765.617,572.894 765.725,572.91 765.834,572.927C772.807,574.012 779.547,576.239 786.033,579.669ZM772.01,606.19C768.543,604.357 764.947,603.15 761.22,602.57C761.2,602.567 761.18,602.566 761.16,602.566C760.932,602.566 760.743,602.752 760.74,602.98C760.9,615.713 760.873,628.983 760.66,642.79C760.4,659.177 757.887,674.83 753.12,689.75C752.987,690.15 753.13,690.33 753.55,690.29C774.84,688.13 793.07,667.34 794.37,646.51C795.517,628.117 788.063,614.677 772.01,606.19Z"/>
    </g>
    <g transform="matrix(1,0,0,1,0,4)">
        <path d="M314.903,592.983L391.992,592.983" style="fill:none;stroke:black;stroke-width:24px;"/>
    </g>
</svg>
